<svg id="svg" version="1.1" xmlns="http://www.w3.org/2000/svg" xmlns:xlink="http://www.w3.org/1999/xlink" width="400" height="399.76033553025763" viewBox="0, 0, 400,399.76033553025763"><g id="svgg"><path id="path0" d="M70.222 199.760 L 70.222 329.539 200.000 329.539 L 329.778 329.539 329.778 199.760 L 329.778 69.982 200.000 69.982 L 70.222 69.982 70.222 199.760 M150.509 115.878 L 150.509 129.179 163.451 129.179 L 176.393 129.179 176.393 115.878 L 176.393 102.576 200.000 102.576 L 223.607 102.576 223.607 115.878 L 223.607 129.179 235.590 129.179 L 247.573 129.179 247.573 115.878 L 247.573 102.576 271.061 102.576 L 294.548 102.576 294.548 135.232 L 294.548 167.887 282.804 179.629 L 271.061 191.370 271.061 222.779 L 271.061 254.188 272.896 254.728 C 288.765 259.397,295.145 278.676,285.191 291.886 C 274.299 306.340,251.940 303.778,244.430 287.214 C 238.738 274.662,245.500 259.352,258.658 254.995 L 260.276 254.459 260.276 220.758 L 260.276 187.056 272.019 175.315 L 283.763 163.573 283.763 138.467 L 283.763 113.361 271.061 113.361 L 258.358 113.361 258.358 126.543 L 258.358 139.724 235.590 139.724 L 212.822 139.724 212.822 126.543 L 212.822 113.361 200.000 113.361 L 187.178 113.361 187.178 126.543 L 187.178 139.724 163.571 139.724 L 139.964 139.724 139.964 126.543 L 139.964 113.361 128.340 113.361 L 116.717 113.361 116.717 139.066 L 116.717 164.771 127.022 175.075 L 137.328 185.378 137.328 219.783 L 137.328 254.188 139.185 254.733 C 155.071 259.390,161.432 278.650,151.456 291.888 C 140.489 306.443,117.864 303.694,110.597 286.925 C 105.176 274.416,111.825 259.386,124.673 255.107 L 126.543 254.484 126.543 222.088 L 126.543 189.692 116.237 179.389 L 105.932 169.085 105.932 135.831 L 105.932 102.576 128.220 102.576 L 150.509 102.576 150.509 115.878 M207.237 167.745 C 219.574 170.425,229.688 179.438,233.541 191.185 C 235.248 196.392,235.192 195.573,235.288 216.717 L 235.374 235.830 200.240 235.830 L 165.105 235.830 165.197 216.836 C 165.299 195.770,165.263 196.302,166.949 191.252 C 172.584 174.379,190.271 164.059,207.237 167.745 M195.566 178.175 C 186.902 179.989,179.992 186.033,177.190 194.248 C 176.004 197.724,175.914 199.010,175.914 212.494 L 175.914 225.045 200.240 225.045 L 224.566 225.045 224.566 212.494 C 224.566 199.010,224.476 197.724,223.290 194.248 C 219.418 182.898,207.103 175.759,195.566 178.175 M130.554 264.631 C 121.983 265.671,116.851 275.305,120.656 283.211 C 126.708 295.785,145.511 291.489,145.511 277.531 C 145.511 269.431,138.787 263.632,130.554 264.631 M264.306 264.629 C 252.831 266.023,249.046 281.435,258.513 288.214 C 267.199 294.435,279.209 288.320,279.209 277.676 C 279.209 269.400,272.607 263.620,264.306 264.629 " stroke="none" fill="#242464" fill-rule="evenodd"></path><path id="path1" d="" stroke="none" fill="#282464" fill-rule="evenodd"></path><path id="path2" d="" stroke="none" fill="#282464" fill-rule="evenodd"></path></g></svg>