<svg id="svg" version="1.1" xmlns="http://www.w3.org/2000/svg" xmlns:xlink="http://www.w3.org/1999/xlink" width="400" height="154.18013856812934" viewBox="0, 0, 400,154.18013856812934"><g id="svgg"><path id="path0" d="M27.000 77.083 L 27.000 127.167 77.000 127.167 L 127.000 127.167 127.000 77.083 L 127.000 27.000 77.000 27.000 L 27.000 27.000 27.000 77.083 M174.522 27.181 C 172.069 27.559,170.120 28.534,168.375 30.255 L 167.333 31.283 167.333 29.558 L 167.333 27.833 161.083 27.833 L 154.833 27.833 154.833 45.417 L 154.833 63.000 161.077 63.000 L 167.321 63.000 167.369 52.958 C 167.415 43.172,167.426 42.898,167.765 42.167 C 169.460 38.520,174.765 38.420,176.611 42.000 L 177.083 42.917 177.132 52.958 L 177.181 63.000 183.430 63.000 L 189.679 63.000 189.631 50.375 L 189.583 37.750 189.131 36.167 C 188.882 35.296,188.488 34.190,188.256 33.709 C 188.023 33.228,187.833 32.801,187.833 32.759 C 187.833 32.401,185.932 30.156,185.073 29.500 C 182.513 27.544,178.248 26.607,174.522 27.181 M209.833 27.103 C 207.458 27.322,204.490 28.009,203.043 28.675 C 202.655 28.854,202.297 29.000,202.249 29.000 C 201.608 29.000,197.460 31.902,196.564 32.977 C 196.137 33.490,196.063 33.409,198.333 34.915 C 199.296 35.553,200.121 36.115,200.167 36.163 C 200.213 36.212,201.126 36.837,202.196 37.554 L 204.142 38.856 205.280 38.249 C 210.129 35.659,214.810 36.859,215.278 40.811 L 215.380 41.667 212.732 41.667 C 208.674 41.667,203.254 42.366,202.417 42.998 C 202.325 43.067,201.950 43.219,201.583 43.337 C 193.037 46.074,191.661 58.123,199.408 62.392 C 202.805 64.264,208.701 64.300,212.250 62.471 C 213.348 61.905,214.378 61.157,214.958 60.505 L 215.333 60.083 215.333 61.542 L 215.333 63.000 221.673 63.000 L 228.012 63.000 227.964 50.458 L 227.917 37.917 227.450 36.353 C 225.427 29.583,219.081 26.250,209.833 27.103 M254.522 27.181 C 252.069 27.559,250.120 28.534,248.375 30.255 L 247.333 31.283 247.333 29.558 L 247.333 27.833 241.083 27.833 L 234.833 27.833 234.833 45.417 L 234.833 63.000 241.083 63.000 L 247.333 63.000 247.336 53.375 C 247.338 45.890,247.389 43.538,247.563 42.795 C 248.540 38.647,254.679 38.174,256.667 42.095 L 257.083 42.917 257.134 52.958 L 257.186 63.000 263.433 63.000 L 269.680 63.000 269.631 50.375 L 269.582 37.750 269.130 36.167 C 268.882 35.296,268.488 34.190,268.256 33.709 C 268.023 33.228,267.833 32.760,267.833 32.667 C 267.833 32.575,267.770 32.500,267.693 32.500 C 267.616 32.500,267.474 32.331,267.377 32.125 C 266.416 30.090,263.325 28.002,260.288 27.338 C 259.126 27.083,255.751 26.992,254.522 27.181 M290.500 27.166 C 288.571 27.391,286.285 28.017,284.759 28.739 C 284.261 28.974,283.774 29.167,283.677 29.167 C 283.580 29.167,283.500 29.230,283.500 29.307 C 283.500 29.384,283.294 29.540,283.042 29.654 C 281.464 30.366,278.965 32.619,277.750 34.426 C 277.383 34.971,277.030 35.457,276.964 35.506 C 276.770 35.652,275.500 38.443,275.500 38.723 C 275.500 38.865,275.437 39.019,275.360 39.067 C 275.233 39.146,274.967 40.214,274.538 42.369 C 274.309 43.524,274.424 47.865,274.727 49.500 C 275.816 55.367,279.740 60.117,285.417 62.438 C 289.655 64.170,296.877 64.282,300.417 62.670 C 302.870 61.552,303.513 61.223,304.313 60.674 C 307.238 58.669,310.833 54.053,310.833 52.305 C 310.833 52.174,310.901 51.995,310.984 51.908 C 311.066 51.821,311.258 51.150,311.410 50.417 C 311.562 49.683,311.764 48.727,311.860 48.292 L 312.033 47.500 337.850 47.500 L 363.667 47.500 363.667 80.580 L 363.667 113.660 362.994 114.003 C 356.149 117.495,359.689 128.251,367.226 126.862 C 373.697 125.670,375.077 116.821,369.234 113.992 L 368.500 113.637 368.500 78.152 L 368.500 42.667 340.167 42.667 C 324.583 42.667,311.833 42.637,311.833 42.602 C 311.833 40.976,310.382 37.013,309.024 34.930 C 307.633 32.797,304.610 30.101,302.583 29.187 C 302.400 29.104,301.835 28.846,301.327 28.613 C 300.819 28.380,300.032 28.098,299.577 27.987 C 299.122 27.876,298.675 27.729,298.583 27.660 C 298.019 27.236,292.694 26.911,290.500 27.166 M295.962 39.895 C 301.158 42.512,300.168 50.205,294.481 51.398 C 286.627 53.046,283.943 42.276,291.500 39.435 C 292.228 39.162,295.092 39.457,295.962 39.895 M58.000 44.750 L 58.000 49.833 63.000 49.833 L 68.000 49.833 68.000 44.750 L 68.000 39.667 76.976 39.667 L 85.952 39.667 86.058 40.792 C 86.116 41.410,86.165 43.698,86.165 45.875 L 86.167 49.833 90.750 49.833 L 95.333 49.833 95.333 44.750 L 95.333 39.667 104.417 39.667 L 113.500 39.667 113.500 52.153 L 113.500 64.640 108.917 69.215 L 104.333 73.791 104.335 85.937 L 104.336 98.083 105.293 98.391 C 112.990 100.869,113.933 111.109,106.833 115.106 C 99.566 119.196,90.721 111.116,94.178 103.543 C 94.355 103.155,94.500 102.794,94.500 102.741 C 94.500 102.340,96.514 100.124,97.333 99.624 C 97.654 99.428,97.954 99.224,98.000 99.170 C 98.046 99.116,98.590 98.860,99.208 98.601 L 100.333 98.129 100.333 85.157 L 100.333 72.184 104.917 67.600 L 109.500 63.016 109.500 53.341 L 109.500 43.667 104.500 43.667 L 99.500 43.667 99.500 48.750 L 99.500 53.833 90.750 53.833 L 82.000 53.833 82.000 48.750 L 82.000 43.667 77.000 43.667 L 72.000 43.667 72.000 48.750 L 72.000 53.833 62.917 53.833 L 53.833 53.833 53.833 48.750 L 53.833 43.667 49.333 43.667 L 44.833 43.667 44.837 53.625 L 44.841 63.583 48.837 67.567 L 52.833 71.551 52.833 84.859 C 52.833 95.809,52.873 98.167,53.055 98.167 C 54.488 98.167,57.542 100.350,58.751 102.240 C 63.663 109.920,54.912 119.348,46.786 115.130 C 39.974 111.594,40.463 101.476,47.583 98.629 L 48.583 98.229 48.626 85.610 L 48.669 72.990 44.751 69.093 L 40.833 65.196 40.833 52.431 L 40.833 39.667 49.417 39.667 L 58.000 39.667 58.000 44.750 M215.328 49.958 C 215.322 52.099,215.319 52.108,214.220 52.966 C 211.767 54.881,208.217 54.593,207.329 52.407 C 206.292 49.851,208.917 48.067,213.792 48.016 L 215.333 48.000 215.328 49.958 M79.531 64.740 C 83.147 65.385,86.920 67.966,88.560 70.917 C 88.713 71.192,88.911 71.529,89.000 71.667 C 90.331 73.717,90.500 75.062,90.500 83.594 L 90.500 91.000 77.073 91.000 L 63.646 91.000 63.709 83.292 C 63.775 75.183,63.754 75.425,64.619 73.083 C 66.780 67.239,73.249 63.620,79.531 64.740 M74.417 68.917 C 71.614 69.685,68.889 72.430,68.047 75.333 C 67.837 76.058,67.766 77.361,67.708 81.542 L 67.635 86.833 77.170 86.833 L 86.704 86.833 86.619 81.542 C 86.537 76.439,86.519 76.208,86.119 75.083 C 84.382 70.195,79.377 67.558,74.417 68.917 M266.000 83.833 L 266.000 90.000 263.750 90.000 L 261.500 90.000 261.500 95.333 L 261.500 100.667 263.750 100.667 L 266.000 100.667 266.001 107.375 C 266.002 115.854,266.240 117.545,267.840 120.434 C 268.894 122.334,271.080 124.667,271.809 124.667 C 271.914 124.667,272.000 124.728,272.000 124.803 C 272.000 125.039,274.353 125.971,275.917 126.354 C 277.897 126.840,282.060 126.877,284.042 126.427 L 285.333 126.133 285.333 120.838 L 285.333 115.542 283.542 115.550 C 279.107 115.568,278.500 114.435,278.500 106.139 L 278.500 100.667 281.917 100.667 L 285.333 100.667 285.333 95.333 L 285.333 90.000 281.917 90.000 L 278.500 90.000 278.500 83.833 L 278.500 77.667 272.250 77.667 L 266.000 77.667 266.000 83.833 M291.833 101.833 L 291.833 126.000 298.083 126.000 L 304.333 126.000 304.333 101.833 L 304.333 77.667 298.083 77.667 L 291.833 77.667 291.833 101.833 M167.750 90.397 C 165.738 90.766,162.482 91.891,161.820 92.446 C 161.675 92.567,161.498 92.667,161.425 92.667 C 160.925 92.667,157.282 95.827,156.333 97.085 C 155.355 98.380,153.860 101.321,153.580 102.500 C 153.569 102.546,153.475 102.883,153.371 103.250 C 151.169 111.003,154.232 119.754,160.583 123.854 C 165.662 127.132,173.819 127.943,178.917 125.675 C 182.956 123.878,185.695 121.742,187.304 119.133 L 187.684 118.515 186.967 118.053 C 185.832 117.320,185.751 117.272,184.999 116.860 C 184.607 116.645,184.203 116.398,184.102 116.311 C 184.000 116.224,183.317 115.802,182.583 115.374 C 181.850 114.946,181.225 114.537,181.194 114.464 C 181.164 114.392,181.069 114.333,180.984 114.333 C 180.832 114.333,178.173 112.757,177.301 112.150 L 176.853 111.838 176.497 112.338 C 174.111 115.688,167.945 115.237,166.167 111.581 C 164.952 109.082,165.285 106.215,167.017 104.264 C 169.248 101.750,173.544 101.704,175.970 104.168 L 176.837 105.049 177.502 104.749 C 177.867 104.584,178.167 104.386,178.167 104.308 C 178.167 104.230,178.250 104.167,178.351 104.167 C 178.452 104.167,178.868 103.942,179.276 103.667 C 179.683 103.392,180.056 103.167,180.103 103.167 C 180.151 103.167,180.503 102.955,180.887 102.696 C 181.270 102.437,182.558 101.639,183.750 100.923 C 184.942 100.207,186.313 99.363,186.797 99.048 L 187.678 98.475 187.301 97.862 C 183.881 92.316,175.254 89.022,167.750 90.397 M203.499 90.329 C 202.354 90.477,199.138 91.311,198.925 91.515 C 198.838 91.598,198.650 91.667,198.508 91.668 C 197.558 91.672,193.303 94.367,191.862 95.878 L 191.308 96.459 192.529 97.313 C 194.168 98.459,194.020 98.358,196.000 99.669 C 196.963 100.307,197.827 100.892,197.921 100.969 C 198.015 101.047,198.315 101.252,198.588 101.426 C 198.860 101.600,199.129 101.806,199.185 101.884 C 199.240 101.962,199.690 101.769,200.185 101.454 C 201.195 100.812,202.211 100.453,204.167 100.048 C 207.456 99.367,210.500 101.433,210.500 104.345 L 210.500 104.797 206.292 104.876 C 194.980 105.091,189.580 108.933,189.602 116.750 C 189.619 122.646,193.111 126.174,199.607 126.859 C 201.354 127.043,204.475 126.841,204.917 126.515 C 205.008 126.447,205.421 126.295,205.833 126.177 C 206.692 125.931,208.336 125.130,208.857 124.705 C 209.051 124.546,209.481 124.174,209.813 123.876 L 210.417 123.336 210.465 124.668 L 210.513 126.000 216.840 126.000 L 223.167 126.000 223.167 114.262 C 223.167 100.263,223.085 99.421,221.449 96.517 C 218.687 91.615,211.834 89.252,203.499 90.329 M240.480 90.345 C 236.623 90.912,232.644 92.917,230.914 95.167 C 230.597 95.579,230.263 96.006,230.171 96.115 C 229.967 96.360,229.271 97.875,228.999 98.667 C 228.364 100.518,228.673 104.601,229.598 106.583 C 230.570 108.668,233.692 111.023,236.333 111.665 C 236.746 111.765,237.233 111.916,237.417 112.000 C 237.772 112.162,239.836 112.629,242.615 113.176 C 245.503 113.744,246.803 114.593,246.610 115.784 C 246.131 118.737,240.240 118.768,238.913 115.825 C 238.750 115.463,238.545 115.167,238.457 115.167 C 238.283 115.167,235.940 115.856,234.500 116.331 C 233.458 116.675,231.694 117.231,229.208 118.000 C 227.485 118.533,227.334 118.657,227.638 119.294 C 228.933 122.007,229.941 123.220,231.842 124.350 C 237.994 128.006,249.953 127.788,255.324 123.923 C 255.809 123.574,258.000 121.326,258.000 121.177 C 258.000 121.093,258.098 120.925,258.217 120.804 C 259.503 119.500,260.187 112.945,259.179 111.583 C 259.111 111.492,258.954 111.154,258.830 110.833 C 258.451 109.855,257.571 108.774,256.341 107.778 C 254.593 106.361,249.943 104.766,245.083 103.914 C 244.167 103.754,243.342 103.566,243.250 103.497 C 243.158 103.428,242.845 103.321,242.554 103.259 C 241.685 103.073,240.833 102.145,240.834 101.386 C 240.837 98.387,246.446 97.943,247.752 100.838 C 248.090 101.586,248.060 101.579,249.417 101.233 C 251.192 100.780,254.219 100.062,257.804 99.243 C 259.074 98.952,255.724 93.731,253.583 92.666 C 253.308 92.529,253.046 92.375,253.000 92.324 C 252.575 91.848,249.292 90.683,247.428 90.345 C 246.295 90.141,241.873 90.140,240.480 90.345 M324.184 90.339 C 321.536 90.723,316.962 92.777,315.667 94.161 C 315.621 94.210,315.289 94.503,314.930 94.812 C 309.666 99.333,307.384 109.195,310.161 115.417 C 310.325 115.783,310.558 116.365,310.680 116.708 C 310.801 117.052,310.955 117.333,311.022 117.333 C 311.089 117.333,311.197 117.502,311.261 117.708 C 311.852 119.612,315.603 123.239,318.386 124.599 C 326.617 128.621,336.460 127.471,341.833 121.857 C 344.262 119.320,344.262 119.319,342.376 118.337 C 341.940 118.110,341.546 117.883,341.500 117.832 C 341.348 117.663,339.312 116.500,339.169 116.500 C 339.091 116.500,339.003 116.435,338.972 116.355 C 338.942 116.275,338.542 116.010,338.083 115.767 C 337.226 115.313,336.438 114.852,335.786 114.425 C 335.438 114.197,335.367 114.225,334.675 114.864 C 332.805 116.590,329.910 117.418,327.336 116.962 C 324.984 116.545,323.734 115.821,322.324 114.062 C 322.008 113.667,321.456 112.322,321.565 112.213 C 321.609 112.169,327.006 112.092,333.559 112.041 L 345.474 111.949 345.568 111.600 C 346.089 109.660,345.269 102.602,344.318 100.835 C 344.243 100.697,344.030 100.220,343.843 99.776 C 341.056 93.128,332.676 89.105,324.184 90.339 M329.877 100.334 C 331.765 100.918,333.336 102.594,333.742 104.458 L 333.860 105.000 327.944 105.000 C 324.690 105.000,321.897 105.050,321.737 105.111 C 320.906 105.430,322.185 102.845,323.451 101.646 C 325.244 99.948,327.284 99.531,329.877 100.334 M49.226 102.238 C 48.533 102.455,48.372 102.558,47.512 103.333 C 45.365 105.268,45.479 109.227,47.733 110.983 C 52.114 114.397,58.068 109.654,55.557 104.750 C 55.181 104.015,54.724 103.495,53.747 102.687 C 52.969 102.045,50.597 101.809,49.226 102.238 M100.832 102.224 C 96.559 103.752,96.318 109.797,100.455 111.691 C 104.206 113.409,108.290 110.204,107.534 106.136 C 106.965 103.079,103.726 101.188,100.832 102.224 M210.500 112.992 L 210.500 114.984 209.884 115.583 C 206.566 118.804,200.831 116.995,202.601 113.284 C 203.206 112.014,206.028 111.105,209.625 111.021 L 210.500 111.000 210.500 112.992 " stroke="none" fill="#1c1c1c" fill-rule="evenodd"></path><path id="path1" d="M274.372 47.333 C 274.372 47.654,274.406 47.785,274.448 47.625 C 274.490 47.465,274.490 47.202,274.448 47.042 C 274.406 46.881,274.372 47.012,274.372 47.333 M265.909 83.833 C 265.909 87.271,265.931 88.677,265.958 86.958 C 265.985 85.240,265.985 82.427,265.958 80.708 C 265.931 78.990,265.909 80.396,265.909 83.833 M265.909 107.000 C 265.909 110.529,265.931 111.973,265.958 110.208 C 265.985 108.444,265.985 105.556,265.958 103.792 C 265.931 102.027,265.909 103.471,265.909 107.000 M152.705 107.500 C 152.705 107.821,152.740 107.952,152.782 107.792 C 152.823 107.631,152.823 107.369,152.782 107.208 C 152.740 107.048,152.705 107.179,152.705 107.500 M152.705 109.500 C 152.705 109.821,152.740 109.952,152.782 109.792 C 152.823 109.631,152.823 109.369,152.782 109.208 C 152.740 109.048,152.705 109.179,152.705 109.500 M328.375 117.119 C 328.627 117.158,329.040 117.158,329.292 117.119 C 329.544 117.081,329.337 117.050,328.833 117.050 C 328.329 117.050,328.123 117.081,328.375 117.119 " stroke="none" fill="#201c1c" fill-rule="evenodd"></path><path id="path2" d="M274.372 47.333 C 274.372 47.654,274.406 47.785,274.448 47.625 C 274.490 47.465,274.490 47.202,274.448 47.042 C 274.406 46.881,274.372 47.012,274.372 47.333 M265.909 83.833 C 265.909 87.271,265.931 88.677,265.958 86.958 C 265.985 85.240,265.985 82.427,265.958 80.708 C 265.931 78.990,265.909 80.396,265.909 83.833 M265.909 107.000 C 265.909 110.529,265.931 111.973,265.958 110.208 C 265.985 108.444,265.985 105.556,265.958 103.792 C 265.931 102.027,265.909 103.471,265.909 107.000 M152.705 107.500 C 152.705 107.821,152.740 107.952,152.782 107.792 C 152.823 107.631,152.823 107.369,152.782 107.208 C 152.740 107.048,152.705 107.179,152.705 107.500 M152.705 109.500 C 152.705 109.821,152.740 109.952,152.782 109.792 C 152.823 109.631,152.823 109.369,152.782 109.208 C 152.740 109.048,152.705 109.179,152.705 109.500 M328.375 117.119 C 328.627 117.158,329.040 117.158,329.292 117.119 C 329.544 117.081,329.337 117.050,328.833 117.050 C 328.329 117.050,328.123 117.081,328.375 117.119 " stroke="none" fill="#201c1c" fill-rule="evenodd"></path></g></svg>