<svg id="svg" version="1.1" xmlns="http://www.w3.org/2000/svg" xmlns:xlink="http://www.w3.org/1999/xlink" width="400" height="399.76033553025763" viewBox="0, 0, 400,399.76033553025763"><g id="svgg"><path id="path0" d="M70.222 268.304 L 70.222 284.242 89.834 284.242 L 109.445 284.242 109.099 282.744 C 106.477 271.419,113.930 258.464,125.058 255.002 C 125.757 254.785,126.323 254.534,126.316 254.445 C 126.309 254.357,126.303 253.853,126.303 253.325 L 126.303 252.367 98.262 252.367 L 70.222 252.367 70.222 268.304 M137.328 253.339 C 137.328 253.875,137.426 254.251,137.547 254.177 C 137.667 254.102,137.802 254.123,137.847 254.223 C 137.891 254.322,138.736 254.660,139.724 254.973 C 147.364 257.393,153.507 263.916,155.611 271.839 C 156.336 274.571,156.354 281.242,155.642 283.703 L 155.486 284.242 199.399 284.242 C 238.372 284.242,243.295 284.202,243.172 283.882 C 239.161 273.427,247.134 258.726,258.838 255.000 L 260.156 254.580 260.229 253.473 L 260.302 252.367 198.815 252.367 L 137.328 252.367 137.328 253.339 M271.061 253.339 C 271.061 253.875,271.159 254.251,271.280 254.177 C 271.400 254.102,271.535 254.123,271.579 254.223 C 271.624 254.322,272.469 254.660,273.457 254.973 C 283.278 258.084,289.846 267.065,289.867 277.412 C 289.874 280.780,289.818 281.483,289.385 283.463 L 289.215 284.242 309.497 284.242 L 329.778 284.242 329.778 269.778 C 329.778 261.822,329.709 254.650,329.624 253.840 L 329.470 252.367 300.265 252.367 L 271.061 252.367 271.061 253.339 M129.005 264.958 C 121.371 267.015,117.270 275.632,120.490 282.850 L 121.107 284.233 132.447 284.297 L 143.787 284.362 144.378 283.044 C 148.895 272.968,139.650 262.092,129.005 264.958 M262.738 264.958 C 255.001 267.042,250.975 275.670,254.303 283.034 L 254.849 284.242 266.164 284.242 L 277.479 284.242 278.014 283.104 C 282.713 273.107,273.429 262.079,262.738 264.958 " stroke="none" fill="#173e81" fill-rule="evenodd"></path><path id="path1" d="M70.222 161.174 L 70.222 252.367 98.249 252.367 L 126.276 252.367 126.367 253.385 C 126.418 253.945,126.478 239.844,126.501 222.048 L 126.543 189.692 116.237 179.389 L 105.932 169.085 105.932 135.831 L 105.932 102.576 128.220 102.576 L 150.509 102.576 150.509 115.878 L 150.509 129.179 163.451 129.179 L 176.393 129.179 176.393 115.878 L 176.393 102.576 200.000 102.576 L 223.607 102.576 223.607 115.878 L 223.607 129.179 235.590 129.179 L 247.573 129.179 247.573 115.878 L 247.573 102.576 271.061 102.576 L 294.548 102.576 294.548 135.232 L 294.548 167.887 282.804 179.629 L 271.061 191.370 271.061 221.868 L 271.061 252.367 300.286 252.367 L 329.511 252.367 329.603 253.385 C 329.653 253.945,329.713 212.909,329.736 162.193 L 329.778 69.982 200.000 69.982 L 70.222 69.982 70.222 161.174 M116.717 139.066 L 116.717 164.771 127.022 175.075 L 137.328 185.378 137.328 218.873 L 137.328 252.367 198.802 252.367 L 260.276 252.367 260.276 219.711 L 260.276 187.056 272.019 175.315 L 283.763 163.573 283.763 138.467 L 283.763 113.361 271.061 113.361 L 258.358 113.361 258.358 126.663 L 258.358 139.964 235.590 139.964 L 212.822 139.964 212.822 126.663 L 212.822 113.361 200.000 113.361 L 187.178 113.361 187.178 126.663 L 187.178 139.964 163.571 139.964 L 139.964 139.964 139.964 126.663 L 139.964 113.361 128.340 113.361 L 116.717 113.361 116.717 139.066 M206.855 167.743 C 220.807 170.542,231.466 181.094,234.673 195.279 C 235.185 197.545,235.200 198.079,235.287 216.717 L 235.377 235.830 200.241 235.830 L 165.105 235.830 165.195 216.836 C 165.281 198.649,165.307 197.745,165.786 195.542 C 169.197 179.871,180.587 169.565,197.124 167.187 C 198.700 166.960,204.650 167.300,206.855 167.743 M195.784 178.188 C 186.481 179.953,179.223 186.772,176.568 196.243 C 176.073 198.009,176.049 198.627,175.970 211.684 L 175.888 225.285 200.240 225.285 L 224.591 225.285 224.509 211.684 C 224.431 198.627,224.407 198.009,223.912 196.243 C 220.372 183.617,208.234 175.826,195.784 178.188 " stroke="none" fill="#14498e" fill-rule="evenodd"></path><path id="path2" d="M155.203 284.802 C 154.709 287.269,151.968 291.685,149.210 294.456 C 137.084 306.638,116.510 302.220,110.233 286.086 L 109.562 284.362 89.892 284.301 L 70.222 284.239 70.222 307.009 L 70.222 329.778 200.000 329.778 L 329.778 329.778 329.778 307.012 L 329.778 284.245 309.467 284.183 L 289.155 284.122 288.651 285.560 C 281.406 306.216,252.286 306.706,244.062 286.310 L 243.277 284.362 199.308 284.242 L 155.339 284.122 155.203 284.802 M121.270 284.460 C 121.270 284.917,123.238 287.140,124.454 288.059 C 129.789 292.087,137.030 291.542,141.821 286.752 C 144.539 284.035,145.314 284.242,132.415 284.242 C 125.878 284.242,121.270 284.332,121.270 284.460 M254.943 284.401 C 255.108 284.467,255.243 284.678,255.243 284.869 C 255.243 286.283,260.410 289.843,263.343 290.450 C 268.493 291.516,274.769 289.027,277.126 284.985 L 277.559 284.242 266.101 284.261 C 259.799 284.271,254.778 284.334,254.943 284.401 " stroke="none" fill="#20286b" fill-rule="evenodd"></path></g></svg>