<svg id="svg" version="1.1" xmlns="http://www.w3.org/2000/svg" xmlns:xlink="http://www.w3.org/1999/xlink" width="400" height="154.0877598152425" viewBox="0, 0, 400,154.0877598152425"><g id="svgg"><path id="path0" d="M261.568 96.333 L 261.583 100.583 263.792 100.630 L 266.000 100.676 266.000 104.567 C 266.000 106.707,266.047 108.693,266.104 108.979 L 266.208 109.500 272.354 109.500 L 278.500 109.500 278.500 105.083 L 278.500 100.667 281.917 100.667 L 285.333 100.667 285.333 98.583 L 285.333 96.500 273.583 96.500 C 267.121 96.500,261.825 96.481,261.814 96.458 C 261.804 96.435,261.741 95.442,261.674 94.250 C 261.574 92.456,261.556 92.813,261.568 96.333 M185.792 96.001 C 185.906 96.152,186.000 96.328,186.000 96.391 C 186.000 96.454,179.419 96.501,171.375 96.496 L 156.750 96.486 156.063 97.452 C 153.800 100.628,152.216 106.207,152.779 109.021 L 152.875 109.500 159.146 109.498 L 165.417 109.497 165.442 108.290 C 165.539 103.720,169.833 101.035,174.230 102.795 C 175.029 103.114,175.341 103.347,176.242 104.288 L 176.917 104.993 178.500 104.024 C 179.371 103.491,181.283 102.320,182.750 101.421 C 184.217 100.522,185.920 99.484,186.536 99.114 L 187.654 98.440 187.300 97.810 C 187.105 97.463,186.639 96.852,186.264 96.452 C 185.890 96.052,185.677 95.849,185.792 96.001 M221.119 96.168 C 221.206 96.503,221.161 96.503,206.278 96.460 C 198.068 96.436,191.402 96.461,191.467 96.515 C 191.531 96.569,192.671 97.339,194.000 98.225 C 195.329 99.111,197.070 100.280,197.868 100.824 L 199.320 101.811 200.729 101.080 C 205.554 98.577,210.500 100.141,210.500 104.171 L 210.500 104.615 206.792 104.718 C 200.820 104.885,197.901 105.526,194.477 107.423 C 194.236 107.557,193.653 108.028,193.183 108.469 C 192.713 108.911,192.279 109.230,192.220 109.178 C 192.161 109.126,192.167 109.177,192.233 109.292 C 192.328 109.456,195.589 109.500,207.656 109.500 L 222.958 109.500 223.063 108.979 C 223.460 106.992,223.096 100.802,222.467 98.833 C 221.984 97.324,220.818 95.019,221.119 96.168 M363.689 101.350 C 363.677 104.430,363.715 107.524,363.774 108.225 L 363.882 109.500 366.087 109.500 L 368.292 109.500 368.396 108.979 C 368.453 108.693,368.500 105.749,368.500 102.438 L 368.501 96.417 366.180 96.467 C 363.872 96.517,363.858 96.515,363.785 96.134 C 363.745 95.923,363.702 98.270,363.689 101.350 M229.970 96.458 C 228.385 98.324,228.223 103.639,229.664 106.494 C 230.183 107.524,231.603 109.167,231.974 109.167 C 232.080 109.167,232.167 109.242,232.167 109.333 C 232.167 109.443,236.556 109.500,245.000 109.500 C 254.091 109.500,257.833 109.447,257.833 109.320 C 257.833 108.992,256.101 107.483,255.040 106.888 C 252.941 105.711,250.927 105.073,245.833 103.972 C 241.694 103.078,240.833 102.591,240.833 101.143 C 240.833 98.279,246.669 98.022,247.834 100.835 C 248.088 101.448,248.078 101.449,250.650 100.822 C 251.805 100.541,253.838 100.049,255.167 99.729 C 258.485 98.929,258.213 99.041,258.084 98.526 C 258.023 98.283,257.820 97.727,257.633 97.292 L 257.292 96.500 243.720 96.500 C 234.714 96.500,230.182 96.444,230.250 96.333 C 230.417 96.063,230.239 96.143,229.970 96.458 M341.500 96.325 C 341.500 96.451,337.306 96.502,327.397 96.498 L 313.294 96.493 312.799 97.072 C 310.463 99.807,309.001 104.311,309.131 108.375 L 309.167 109.500 327.313 109.500 L 345.458 109.500 345.563 108.979 C 345.974 106.920,345.210 102.682,343.926 99.901 C 343.084 98.080,341.500 95.745,341.500 96.325 M52.833 97.194 L 52.833 97.971 53.917 98.321 C 57.812 99.579,60.295 103.322,60.131 107.687 L 60.063 109.500 76.823 109.500 L 93.583 109.500 93.525 107.625 C 93.386 103.133,95.788 99.476,99.636 98.323 L 100.333 98.114 100.333 97.265 L 100.333 96.417 76.583 96.417 L 52.833 96.417 52.833 97.194 M27.000 103.000 L 27.000 109.500 34.579 109.500 L 42.158 109.500 42.037 108.958 C 41.084 104.686,43.798 99.757,47.844 98.413 L 48.667 98.140 48.667 97.320 L 48.667 96.500 37.833 96.500 L 27.000 96.500 27.000 103.000 M104.366 97.274 C 104.416 98.042,104.423 98.050,105.177 98.240 C 109.454 99.322,112.282 104.011,111.591 108.875 L 111.502 109.500 119.251 109.500 L 127.000 109.500 127.000 103.000 L 127.000 96.500 115.658 96.500 L 104.315 96.500 104.366 97.274 M291.833 103.000 L 291.833 109.500 298.083 109.500 L 304.333 109.500 304.333 103.000 L 304.333 96.500 298.083 96.500 L 291.833 96.500 291.833 103.000 M329.478 100.088 C 331.484 100.561,332.932 101.948,333.675 104.107 L 333.982 105.000 327.723 105.000 L 321.464 105.000 321.577 104.542 C 322.407 101.173,325.849 99.233,329.478 100.088 M49.833 101.934 C 47.087 102.977,45.908 104.585,46.060 107.083 C 46.160 108.724,46.181 108.833,46.389 108.833 C 46.481 108.833,46.509 108.880,46.452 108.937 C 46.396 108.993,46.453 109.143,46.579 109.270 C 46.848 109.539,55.593 109.619,55.427 109.351 C 55.377 109.269,55.448 109.158,55.586 109.105 C 55.724 109.053,55.822 108.951,55.805 108.880 C 55.788 108.808,55.870 108.414,55.987 108.004 C 56.922 104.725,52.909 100.767,49.833 101.934 M100.911 102.137 C 99.703 102.587,99.441 102.750,98.857 103.415 C 97.426 105.045,97.099 106.933,97.911 108.877 L 98.171 109.500 102.483 109.500 L 106.795 109.500 107.067 109.085 C 109.376 105.561,104.996 100.616,100.911 102.137 " stroke="none" fill="#173f81" fill-rule="evenodd"></path><path id="path1" d="M27.000 61.667 L 27.000 96.500 37.833 96.500 L 48.667 96.500 48.664 84.708 L 48.661 72.917 44.747 69.020 L 40.833 65.123 40.833 52.312 L 40.833 39.500 49.417 39.500 L 58.000 39.500 58.000 44.667 L 58.000 49.833 63.000 49.833 L 68.000 49.833 68.000 44.667 L 68.000 39.500 76.976 39.500 L 85.951 39.500 86.059 40.775 C 86.118 41.476,86.167 43.801,86.167 45.942 L 86.167 49.833 90.750 49.833 L 95.333 49.833 95.333 44.667 L 95.333 39.500 104.417 39.500 L 113.500 39.500 113.500 52.043 L 113.500 64.586 108.917 69.167 L 104.333 73.748 104.333 85.124 L 104.333 96.500 115.667 96.500 L 127.000 96.500 127.000 61.667 L 127.000 26.833 77.000 26.833 L 27.000 26.833 27.000 61.667 M174.750 27.104 C 171.685 27.579,168.869 29.114,167.609 30.995 C 167.344 31.391,167.333 31.333,167.333 29.537 L 167.333 27.667 161.083 27.667 L 154.833 27.667 154.833 45.333 L 154.833 63.000 161.083 63.000 L 167.333 63.000 167.333 53.425 C 167.333 42.303,167.361 42.038,168.635 40.747 C 170.699 38.654,174.748 38.962,176.298 41.329 C 177.120 42.584,177.167 43.242,177.167 53.531 L 177.167 63.000 183.424 63.000 L 189.680 63.000 189.632 50.292 L 189.583 37.583 189.117 36.000 C 187.500 30.512,184.410 27.814,178.913 27.093 C 176.642 26.795,176.740 26.795,174.750 27.104 M210.917 26.949 C 204.580 27.521,200.675 29.057,197.045 32.406 L 196.153 33.228 196.535 33.574 C 196.745 33.764,198.031 34.669,199.394 35.585 C 200.756 36.501,202.391 37.602,203.026 38.032 L 204.182 38.814 205.133 38.262 C 205.656 37.959,206.383 37.621,206.750 37.510 C 207.117 37.400,207.597 37.222,207.817 37.113 C 208.508 36.773,212.135 36.856,212.833 37.227 C 214.244 37.977,215.132 39.260,215.288 40.771 L 215.380 41.667 212.267 41.667 C 205.659 41.667,201.482 42.678,198.353 45.035 C 192.917 49.130,192.935 58.050,198.387 61.686 C 198.920 62.042,199.387 62.333,199.424 62.333 C 199.460 62.333,199.886 62.513,200.370 62.733 C 203.401 64.110,208.450 64.114,211.448 62.743 C 211.940 62.518,212.373 62.333,212.410 62.333 C 212.630 62.333,214.525 60.935,214.887 60.505 L 215.320 59.990 215.368 61.453 L 215.417 62.917 221.708 62.960 L 228.000 63.004 227.990 50.877 C 227.985 44.207,227.918 38.412,227.841 38.000 C 226.578 31.191,222.637 27.922,214.672 27.076 C 212.441 26.840,212.219 26.832,210.917 26.949 M254.750 27.104 C 251.836 27.556,250.059 28.419,248.216 30.277 L 247.333 31.167 247.333 29.417 L 247.333 27.667 241.083 27.667 L 234.833 27.667 234.833 45.333 L 234.833 63.000 241.077 63.000 L 247.321 63.000 247.369 52.875 C 247.416 42.839,247.420 42.743,247.782 42.000 C 249.526 38.423,254.797 38.404,256.603 41.968 L 257.083 42.917 257.133 52.958 L 257.183 63.000 263.431 63.000 L 269.679 63.000 269.628 50.375 C 269.578 37.774,269.577 37.747,269.192 36.338 C 267.642 30.664,264.481 27.824,258.900 27.092 C 256.643 26.796,256.739 26.795,254.750 27.104 M290.795 27.091 C 288.802 27.333,287.170 27.641,286.917 27.822 C 286.825 27.888,286.412 28.036,286.000 28.151 C 280.645 29.648,275.867 35.333,274.673 41.628 C 273.714 46.686,274.706 51.803,277.471 56.051 C 278.155 57.102,280.874 60.000,281.176 60.000 C 281.250 60.000,281.409 60.094,281.530 60.209 C 286.361 64.785,297.698 64.943,304.402 60.527 C 308.373 57.911,312.000 51.660,312.000 47.434 C 312.000 47.379,323.625 47.333,337.833 47.333 L 363.667 47.333 363.667 71.396 C 363.667 84.630,363.714 95.695,363.772 95.984 L 363.877 96.509 366.147 96.463 L 368.417 96.417 368.459 69.458 L 368.501 42.500 340.175 42.500 L 311.848 42.500 311.741 41.875 C 311.247 39.000,310.237 36.610,308.417 34.012 C 306.761 31.649,302.928 28.972,299.750 27.960 C 297.995 27.401,297.925 27.387,295.411 27.091 C 292.957 26.802,293.177 26.802,290.795 27.091 M294.398 39.329 C 297.809 39.888,300.013 43.420,299.099 46.867 C 298.805 47.979,298.563 48.602,298.294 48.943 C 294.535 53.712,287.005 51.351,287.001 45.403 C 286.998 41.335,290.265 38.653,294.398 39.329 M44.833 53.579 L 44.833 63.491 48.832 67.482 L 52.831 71.473 52.874 83.945 L 52.917 96.417 76.583 96.417 L 100.250 96.417 100.294 84.250 L 100.338 72.083 104.919 67.505 L 109.500 62.926 109.500 53.296 L 109.500 43.667 104.500 43.667 L 99.500 43.667 99.500 48.750 L 99.500 53.833 90.750 53.833 L 82.000 53.833 82.000 48.750 L 82.000 43.667 77.000 43.667 L 72.000 43.667 72.000 48.750 L 72.000 53.833 62.917 53.833 L 53.833 53.833 53.833 48.750 L 53.833 43.667 49.333 43.667 L 44.833 43.667 44.833 53.579 M215.333 49.936 L 215.333 51.872 214.690 52.478 C 212.106 54.911,207.924 54.622,207.178 51.958 C 206.513 49.584,208.972 48.083,213.625 48.022 L 215.333 48.000 215.333 49.936 M80.637 64.920 C 85.228 66.244,88.332 69.245,90.029 74.000 C 90.410 75.066,90.417 75.208,90.467 82.958 L 90.518 90.833 77.092 90.833 L 63.667 90.833 63.667 83.768 C 63.667 76.145,63.759 75.057,64.571 73.066 C 64.957 72.122,65.796 70.507,65.991 70.333 C 66.042 70.287,66.412 69.819,66.812 69.292 C 67.213 68.765,67.588 68.332,67.645 68.331 C 67.703 68.330,68.052 68.049,68.420 67.706 C 71.524 64.823,76.424 63.705,80.637 64.920 M75.250 68.601 C 72.370 69.310,69.987 71.127,68.715 73.583 C 67.857 75.240,67.796 75.714,67.712 81.458 L 67.633 86.833 77.168 86.833 L 86.704 86.833 86.621 81.542 C 86.530 75.717,86.468 75.322,85.322 73.171 C 83.602 69.944,78.747 67.741,75.250 68.601 M265.833 83.750 L 265.833 90.000 263.654 90.000 L 261.475 90.000 261.577 92.542 C 261.634 93.940,261.719 95.402,261.767 95.792 L 261.854 96.500 273.594 96.500 L 285.333 96.500 285.333 93.250 L 285.333 90.000 281.917 90.000 L 278.500 90.000 278.500 83.750 L 278.500 77.500 272.167 77.500 L 265.833 77.500 265.833 83.750 M291.833 87.000 L 291.833 96.500 298.083 96.500 L 304.333 96.500 304.333 87.000 L 304.333 77.500 298.083 77.500 L 291.833 77.500 291.833 87.000 M168.500 90.156 C 165.028 90.766,162.730 91.655,160.321 93.319 C 158.727 94.421,156.895 96.173,157.111 96.389 C 157.267 96.545,186.000 96.528,186.000 96.372 C 186.000 95.797,182.941 93.229,181.074 92.237 C 177.762 90.476,172.055 89.531,168.500 90.156 M204.417 90.101 C 200.384 90.674,197.524 91.697,194.667 93.588 C 193.299 94.494,191.500 96.091,191.500 96.400 C 191.500 96.455,198.175 96.500,206.333 96.500 C 218.418 96.500,221.167 96.460,221.167 96.283 C 221.167 94.520,216.622 91.345,213.012 90.586 C 212.400 90.457,211.679 90.303,211.408 90.243 C 210.826 90.114,205.138 89.999,204.417 90.101 M241.083 90.154 C 236.878 90.799,233.851 92.146,231.623 94.366 C 230.985 95.000,230.509 95.565,230.564 95.620 C 230.619 95.675,230.514 95.826,230.329 95.955 C 229.594 96.470,230.337 96.500,243.675 96.500 L 257.164 96.500 256.674 95.708 C 254.172 91.659,247.282 89.204,241.083 90.154 M324.969 90.152 C 324.723 90.233,324.489 90.267,324.450 90.227 C 324.369 90.147,321.263 90.921,320.750 91.150 C 318.976 91.940,318.230 92.338,317.083 93.105 C 315.665 94.053,314.000 95.503,314.000 95.791 C 314.000 95.886,313.887 96.008,313.750 96.060 C 312.729 96.452,314.222 96.500,327.500 96.500 C 338.591 96.500,341.499 96.457,341.495 96.292 C 341.472 95.285,337.475 92.366,334.583 91.246 C 332.060 90.268,326.537 89.640,324.969 90.152 " stroke="none" fill="#124b90" fill-rule="evenodd"></path><path id="path2" d="M265.867 106.635 C 265.835 112.374,265.892 113.460,266.364 116.166 C 267.359 121.865,271.495 125.758,277.332 126.490 C 279.805 126.800,283.406 126.630,284.764 126.139 L 285.333 125.933 285.333 120.668 L 285.333 115.403 283.458 115.410 C 280.109 115.422,278.500 113.845,278.500 110.551 L 278.500 109.500 272.333 109.500 C 268.942 109.500,266.153 109.481,266.137 109.458 C 266.121 109.435,266.062 107.429,266.005 105.000 L 265.901 100.583 265.867 106.635 M171.208 102.282 C 171.369 102.323,171.631 102.323,171.792 102.282 C 171.952 102.240,171.821 102.205,171.500 102.205 C 171.179 102.205,171.048 102.240,171.208 102.282 M203.877 104.786 C 204.131 104.825,204.506 104.824,204.711 104.784 C 204.916 104.744,204.708 104.713,204.250 104.714 C 203.792 104.716,203.624 104.748,203.877 104.786 M309.096 109.500 C 309.170 112.456,309.990 115.525,311.292 117.720 C 311.498 118.068,311.667 118.423,311.667 118.510 C 311.667 118.596,311.725 118.667,311.797 118.667 C 311.869 118.667,312.052 118.877,312.204 119.133 C 312.573 119.758,313.587 120.924,314.476 121.746 C 316.036 123.188,316.791 123.663,320.169 125.329 C 325.327 127.873,335.369 127.002,339.750 123.632 C 340.945 122.712,342.027 121.714,342.500 121.095 C 342.821 120.675,343.252 120.126,343.458 119.874 C 344.069 119.128,344.256 119.309,340.750 117.251 C 339.833 116.713,338.245 115.770,337.221 115.157 L 335.358 114.042 334.804 114.616 C 331.739 117.791,325.656 117.750,322.826 114.535 C 322.245 113.875,321.500 112.544,321.500 112.166 C 321.500 112.098,326.860 112.010,333.410 111.972 C 339.961 111.933,345.380 111.842,345.452 111.770 C 345.524 111.698,345.596 110.989,345.612 110.195 C 345.627 109.400,345.603 108.919,345.559 109.125 L 345.477 109.500 327.329 109.500 L 309.182 109.500 309.113 108.458 C 309.075 107.885,309.067 108.354,309.096 109.500 M363.697 110.668 L 363.667 113.585 362.851 113.959 C 357.425 116.449,358.564 125.396,364.467 126.646 C 366.124 126.997,368.644 126.700,369.346 126.069 C 369.491 125.940,369.689 125.833,369.786 125.833 C 370.149 125.833,371.767 124.028,372.220 123.117 C 373.892 119.753,372.527 115.471,369.298 113.953 L 368.514 113.583 368.484 111.167 C 368.468 109.837,368.422 108.919,368.382 109.125 C 368.312 109.492,368.260 109.500,366.080 109.500 L 363.851 109.500 363.790 108.625 C 363.756 108.144,363.714 109.063,363.697 110.668 M192.016 109.458 C 188.638 113.188,188.657 119.854,192.055 123.404 C 193.210 124.612,195.412 126.000,196.170 126.000 C 196.315 126.000,196.505 126.064,196.592 126.143 C 197.138 126.637,201.340 126.968,203.346 126.675 C 206.067 126.278,208.905 124.929,210.203 123.417 C 210.477 123.097,210.489 123.145,210.494 124.542 L 210.500 126.000 216.833 126.000 L 223.167 126.000 223.144 117.375 C 223.131 112.631,223.089 108.919,223.049 109.125 L 222.977 109.500 207.645 109.500 C 195.428 109.500,192.338 109.458,192.432 109.292 C 192.497 109.177,192.663 108.952,192.801 108.792 C 193.428 108.061,192.792 108.602,192.016 109.458 M59.833 109.078 C 59.833 112.172,54.820 116.181,50.970 116.164 C 47.451 116.149,43.005 112.903,42.408 109.913 L 42.308 109.417 34.654 109.462 L 27.000 109.507 27.000 118.337 L 27.000 127.167 77.000 127.167 L 127.000 127.167 127.000 118.333 L 127.000 109.500 119.232 109.500 C 112.280 109.500,111.475 109.473,111.564 109.241 C 111.621 109.093,111.593 109.026,111.498 109.085 C 111.407 109.141,111.333 109.299,111.333 109.436 C 111.333 110.237,109.991 112.388,108.764 113.555 C 104.296 117.803,97.057 116.448,94.396 110.867 L 93.750 109.512 76.864 109.506 C 60.055 109.500,59.978 109.498,60.083 109.167 C 60.144 108.975,60.113 108.833,60.011 108.833 C 59.913 108.833,59.833 108.943,59.833 109.078 M106.997 109.172 C 106.821 109.501,106.693 109.509,102.420 109.464 L 98.024 109.417 98.466 110.000 C 100.719 112.972,105.389 112.609,107.084 109.331 C 107.226 109.057,107.305 108.833,107.260 108.833 C 107.215 108.833,107.097 108.986,106.997 109.172 M152.708 109.500 C 152.711 109.912,152.773 110.587,152.847 111.000 C 153.251 113.260,153.541 114.600,153.658 114.749 C 153.731 114.841,153.884 115.217,153.998 115.583 C 154.732 117.930,157.659 121.793,159.711 123.123 C 160.099 123.374,160.454 123.629,160.500 123.688 C 160.602 123.820,161.628 124.441,162.083 124.646 C 162.267 124.729,162.829 124.983,163.333 125.210 C 171.607 128.945,182.973 125.990,187.295 118.980 L 187.667 118.378 187.042 117.971 C 186.698 117.747,185.797 117.193,185.041 116.740 C 184.284 116.287,183.294 115.692,182.841 115.417 C 182.389 115.142,181.695 114.723,181.301 114.486 C 180.906 114.249,179.764 113.555,178.763 112.944 L 176.943 111.832 176.033 112.750 C 175.533 113.254,175.057 113.667,174.977 113.667 C 174.896 113.667,174.474 113.835,174.040 114.042 C 172.120 114.953,168.828 114.423,167.333 112.961 C 166.303 111.954,165.967 111.336,165.562 109.708 C 165.522 109.546,164.106 109.500,159.183 109.500 L 152.857 109.500 152.780 109.125 C 152.737 108.919,152.705 109.087,152.708 109.500 M46.513 109.219 C 46.457 109.802,47.690 111.030,48.879 111.573 C 50.818 112.460,53.463 111.952,54.793 110.437 C 55.630 109.484,55.693 109.500,51.014 109.500 C 47.714 109.500,46.675 109.451,46.610 109.292 C 46.564 109.177,46.520 109.145,46.513 109.219 M257.833 109.311 C 257.833 109.450,254.469 109.501,245.042 109.505 C 230.901 109.511,231.754 109.434,233.883 110.520 C 235.747 111.471,238.131 112.190,241.583 112.843 C 245.366 113.559,246.595 114.223,246.568 115.538 C 246.514 118.155,241.439 118.790,239.375 116.438 C 239.077 116.099,238.833 115.721,238.833 115.598 C 238.833 114.925,238.288 115.013,233.874 116.394 C 230.278 117.519,229.679 117.704,228.686 118.003 C 227.341 118.407,227.382 118.348,227.738 119.379 C 228.774 122.377,231.567 124.685,235.583 125.862 C 240.659 127.351,248.678 127.048,252.667 125.217 C 253.171 124.986,253.733 124.730,253.917 124.649 C 258.639 122.554,261.166 115.528,258.892 110.814 C 258.424 109.845,257.833 109.005,257.833 109.311 M291.833 117.750 L 291.833 126.000 298.083 126.000 L 304.333 126.000 304.333 117.750 L 304.333 109.500 298.083 109.500 L 291.833 109.500 291.833 117.750 M210.500 112.942 L 210.500 114.885 209.792 115.543 C 206.960 118.173,202.333 117.504,202.333 114.464 C 202.333 112.186,204.459 111.110,209.125 111.025 L 210.500 111.000 210.500 112.942 " stroke="none" fill="#20286b" fill-rule="evenodd"></path></g></svg>