<svg id="svg" version="1.1" xmlns="http://www.w3.org/2000/svg" xmlns:xlink="http://www.w3.org/1999/xlink" width="400" height="400" viewBox="0, 0, 400,400"><g id="svgg"><path id="path0" d="M70.222 200.000 L 70.222 329.778 200.000 329.778 L 329.778 329.778 329.778 200.000 L 329.778 70.222 200.000 70.222 L 70.222 70.222 70.222 200.000 M150.509 115.998 L 150.509 129.179 163.451 129.179 L 176.393 129.179 176.393 115.998 L 176.393 102.816 200.000 102.816 L 223.607 102.816 223.607 115.998 L 223.607 129.179 235.590 129.179 L 247.573 129.179 247.573 115.998 L 247.573 102.816 271.061 102.816 L 294.548 102.816 294.548 135.471 L 294.548 168.126 282.804 179.868 L 271.061 191.610 271.061 223.067 C 271.061 250.101,271.108 254.524,271.401 254.524 C 275.240 254.524,282.739 259.739,286.045 264.707 C 299.430 284.823,276.905 310.033,255.449 298.951 C 236.648 289.241,238.842 261.349,258.898 255.105 L 260.276 254.676 260.276 220.986 L 260.276 187.296 272.019 175.554 L 283.763 163.812 283.763 138.707 L 283.763 113.601 271.061 113.601 L 258.358 113.601 258.358 126.783 L 258.358 139.964 235.590 139.964 L 212.822 139.964 212.822 126.783 L 212.822 113.601 200.000 113.601 L 187.178 113.601 187.178 126.783 L 187.178 139.964 163.571 139.964 L 139.964 139.964 139.964 126.783 L 139.964 113.601 128.340 113.601 L 116.717 113.601 116.717 139.306 L 116.717 165.011 127.022 175.315 L 137.328 185.618 137.328 220.021 L 137.328 254.423 138.945 254.844 C 153.613 258.654,160.884 276.730,152.997 289.777 C 142.178 307.675,115.912 304.505,109.675 284.549 C 105.905 272.486,113.047 258.912,125.165 255.108 L 126.543 254.676 126.543 222.304 L 126.543 189.932 116.237 179.629 L 105.932 169.325 105.932 136.071 L 105.932 102.816 128.220 102.816 L 150.509 102.816 150.509 115.998 M207.070 167.886 C 221.189 170.963,231.431 181.221,234.678 195.538 C 235.187 197.783,235.203 198.342,235.288 216.956 L 235.374 236.070 200.238 236.070 L 165.103 236.070 165.192 216.956 C 165.290 195.824,165.234 196.647,166.934 191.424 C 172.323 174.868,190.418 164.256,207.070 167.886 M195.249 178.447 C 185.345 180.653,177.997 188.290,176.265 198.174 C 175.986 199.768,175.914 202.772,175.914 212.734 L 175.914 225.285 200.252 225.285 L 224.591 225.285 224.505 211.803 C 224.398 195.150,224.046 193.418,219.564 187.491 C 214.107 180.274,203.972 176.504,195.249 178.447 M129.658 264.963 C 119.630 267.125,115.920 279.773,123.183 287.037 C 131.436 295.289,145.511 289.448,145.511 277.771 C 145.511 269.320,137.916 263.184,129.658 264.963 M263.391 264.963 C 253.279 267.143,249.624 279.832,257.003 287.143 C 263.058 293.142,273.768 291.578,277.688 284.122 C 282.958 274.100,274.373 262.596,263.391 264.963 " stroke="none" fill="#1c1c1c" fill-rule="evenodd"></path><path id="path1" d="" stroke="none" fill="#201c1c" fill-rule="evenodd"></path><path id="path2" d="" stroke="none" fill="#201c1c" fill-rule="evenodd"></path></g></svg>