<svg id="svg" version="1.1" xmlns="http://www.w3.org/2000/svg" xmlns:xlink="http://www.w3.org/1999/xlink" width="400" height="154.0877598152425" viewBox="0, 0, 400,154.0877598152425"><g id="svgg"><path id="path0" d="M176.000 27.017 C 173.416 27.158,170.919 27.890,170.048 28.762 C 169.917 28.893,169.741 29.000,169.657 29.000 C 169.573 29.000,169.016 29.484,168.419 30.075 L 167.333 31.150 167.333 29.408 L 167.333 27.667 161.083 27.667 L 154.833 27.667 154.833 45.333 L 154.833 63.000 161.076 63.000 L 167.319 63.000 167.368 52.875 C 167.416 42.840,167.420 42.743,167.782 42.000 C 169.784 37.894,176.165 38.644,176.986 43.082 C 177.102 43.713,177.167 47.429,177.167 53.531 L 177.167 63.000 183.424 63.000 L 189.680 63.000 189.632 50.292 L 189.583 37.583 189.096 35.917 C 188.180 32.779,186.592 30.347,184.667 29.131 C 184.346 28.928,183.984 28.666,183.863 28.548 C 183.742 28.430,183.575 28.333,183.493 28.333 C 183.411 28.333,182.936 28.147,182.439 27.920 C 181.685 27.575,180.733 27.359,178.167 26.952 C 178.029 26.931,177.054 26.960,176.000 27.017 M209.907 27.031 C 204.219 27.687,200.452 29.235,197.188 32.257 L 196.146 33.222 196.531 33.577 C 196.743 33.772,197.367 34.216,197.917 34.564 C 198.467 34.911,199.592 35.670,200.417 36.250 C 201.242 36.830,202.434 37.626,203.067 38.020 L 204.217 38.736 205.044 38.274 C 209.895 35.566,214.875 36.772,215.286 40.755 L 215.380 41.667 212.183 41.667 C 207.486 41.667,203.960 42.171,201.756 43.159 C 201.386 43.325,200.922 43.509,200.725 43.569 C 199.204 44.033,196.580 46.346,195.614 48.075 C 193.476 51.902,194.110 57.660,196.983 60.507 C 201.225 64.709,210.258 64.873,214.525 60.826 L 215.333 60.058 215.333 61.529 L 215.333 63.000 221.674 63.000 L 228.014 63.000 227.956 50.292 L 227.898 37.583 227.450 36.167 C 225.329 29.473,218.693 26.017,209.907 27.031 M256.000 27.017 C 252.617 27.202,250.429 28.075,248.464 30.024 L 247.333 31.146 247.333 29.406 L 247.333 27.667 241.083 27.667 L 234.833 27.667 234.833 45.333 L 234.833 63.000 241.077 63.000 L 247.321 63.000 247.369 52.875 C 247.416 42.839,247.420 42.743,247.782 42.000 C 249.540 38.394,254.893 38.389,256.636 41.992 L 257.083 42.917 257.133 52.958 L 257.183 63.000 263.432 63.000 L 269.680 63.000 269.620 50.292 L 269.560 37.583 269.127 36.083 C 268.133 32.639,266.773 30.593,264.377 28.937 C 263.896 28.605,263.467 28.333,263.423 28.333 C 263.379 28.333,262.936 28.147,262.439 27.920 C 261.685 27.575,260.733 27.359,258.167 26.952 C 258.029 26.931,257.054 26.960,256.000 27.017 M292.083 27.030 C 286.117 27.325,280.909 29.895,277.917 34.020 C 274.771 38.358,273.619 43.967,274.752 49.442 C 275.651 53.789,278.325 58.060,281.500 60.219 C 283.038 61.264,284.599 62.075,285.917 62.514 C 286.283 62.636,286.658 62.787,286.750 62.850 C 287.246 63.189,291.493 63.828,293.250 63.827 C 294.958 63.827,299.137 63.174,299.583 62.838 C 299.675 62.769,299.975 62.660,300.250 62.595 C 301.270 62.356,304.130 60.859,304.804 60.212 C 304.925 60.095,305.084 60.000,305.157 60.000 C 305.775 60.000,309.076 56.015,310.057 54.083 C 310.874 52.476,312.000 48.622,312.000 47.434 C 312.000 47.379,323.625 47.333,337.833 47.333 L 363.667 47.333 363.667 80.467 L 363.667 113.600 363.042 113.825 C 361.970 114.212,360.298 116.054,359.778 117.420 C 357.509 123.389,363.575 128.901,369.279 126.053 C 374.117 123.637,374.138 116.217,369.313 113.958 L 368.514 113.583 368.507 78.042 L 368.500 42.500 340.167 42.500 C 324.583 42.500,311.832 42.444,311.831 42.375 C 311.829 42.306,311.685 41.575,311.509 40.750 C 310.075 34.008,304.243 28.461,297.417 27.347 C 295.032 26.958,294.363 26.918,292.083 27.030 M27.000 77.000 L 27.000 127.000 77.000 127.000 L 127.000 127.000 127.000 77.000 L 127.000 27.000 77.000 27.000 L 27.000 27.000 27.000 77.000 M294.886 39.416 C 298.522 40.363,300.228 44.205,298.736 48.083 C 296.891 52.878,289.084 52.462,287.398 47.478 C 285.724 42.530,289.838 38.101,294.886 39.416 M58.000 44.667 L 58.000 49.833 63.000 49.833 L 68.000 49.833 68.000 44.667 L 68.000 39.500 76.976 39.500 L 85.951 39.500 86.059 40.775 C 86.118 41.476,86.167 43.801,86.167 45.942 L 86.167 49.833 90.750 49.833 L 95.333 49.833 95.333 44.667 L 95.333 39.500 104.417 39.500 L 113.500 39.500 113.500 52.029 L 113.500 64.558 108.917 69.133 L 104.333 73.708 104.333 85.842 L 104.333 97.976 105.272 98.249 C 110.297 99.710,113.095 105.737,110.959 110.500 C 107.501 118.212,96.732 117.722,93.910 109.725 C 92.324 105.230,95.120 99.651,99.625 98.323 L 100.333 98.114 100.333 85.117 L 100.333 72.120 104.917 67.543 L 109.500 62.966 109.500 53.316 L 109.500 43.667 104.500 43.667 L 99.500 43.667 99.500 48.750 L 99.500 53.833 90.750 53.833 L 82.000 53.833 82.000 48.750 L 82.000 43.667 77.000 43.667 L 72.000 43.667 72.000 48.750 L 72.000 53.833 62.917 53.833 L 53.833 53.833 53.833 48.750 L 53.833 43.667 49.333 43.667 L 44.833 43.667 44.833 53.583 L 44.833 63.499 48.832 67.496 L 52.831 71.492 52.874 84.777 L 52.917 98.062 53.667 98.261 C 58.128 99.445,61.109 104.655,59.862 109.086 C 57.354 117.996,45.607 118.474,42.379 109.797 C 40.980 106.037,42.908 100.814,46.292 99.197 C 46.590 99.055,46.833 98.887,46.833 98.825 C 46.833 98.763,47.246 98.583,47.750 98.424 L 48.667 98.136 48.667 85.525 L 48.667 72.914 44.750 69.000 L 40.833 65.086 40.833 52.293 L 40.833 39.500 49.417 39.500 L 58.000 39.500 58.000 44.667 M215.333 49.911 C 215.333 52.112,215.210 52.338,213.474 53.313 C 210.871 54.775,208.063 54.235,207.254 52.117 C 206.336 49.713,208.850 48.075,213.542 48.021 L 215.333 48.000 215.333 49.911 M78.917 64.493 C 83.678 65.268,87.931 68.553,89.500 72.667 C 89.622 72.987,89.778 73.325,89.846 73.417 C 90.361 74.109,90.500 76.251,90.500 83.493 L 90.500 90.833 77.083 90.833 L 63.667 90.833 63.668 83.792 C 63.669 75.203,63.741 74.639,65.197 71.752 C 66.250 69.664,67.814 67.913,69.760 66.645 C 72.549 64.827,75.994 64.018,78.917 64.493 M75.083 68.606 C 72.239 69.337,69.957 71.136,68.665 73.667 C 67.863 75.238,67.796 75.784,67.712 81.375 L 67.632 86.667 77.168 86.667 L 86.704 86.667 86.623 81.458 C 86.524 75.124,86.274 74.040,84.384 71.769 C 83.858 71.138,82.269 69.833,82.025 69.833 C 81.919 69.833,81.833 69.769,81.833 69.689 C 81.833 69.610,81.477 69.418,81.042 69.263 C 80.606 69.107,80.100 68.895,79.917 68.791 C 79.576 68.597,75.695 68.448,75.083 68.606 M266.000 83.667 L 266.000 89.833 263.750 89.833 L 261.500 89.833 261.500 95.250 L 261.500 100.667 263.738 100.667 L 265.976 100.667 266.044 108.042 C 266.123 116.527,266.198 117.056,267.762 120.167 C 270.366 125.348,278.137 128.103,284.646 126.153 L 285.333 125.947 285.333 120.661 L 285.333 115.375 283.625 115.396 C 279.142 115.450,278.500 114.287,278.500 106.114 L 278.500 100.667 281.917 100.667 L 285.333 100.667 285.333 95.250 L 285.333 89.833 281.917 89.833 L 278.500 89.833 278.500 83.667 L 278.500 77.500 272.250 77.500 L 266.000 77.500 266.000 83.667 M291.833 101.667 L 291.833 125.833 298.083 125.833 L 304.333 125.833 304.333 101.667 L 304.333 77.500 298.083 77.500 L 291.833 77.500 291.833 101.667 M168.583 90.105 C 159.078 91.527,152.972 98.429,152.753 108.000 C 152.559 116.439,157.486 123.592,165.040 125.840 C 169.966 127.306,175.557 127.065,179.667 125.210 C 180.171 124.983,180.733 124.730,180.917 124.649 C 181.285 124.485,181.460 124.378,182.900 123.432 C 184.313 122.505,186.472 120.315,187.303 118.967 L 187.683 118.351 187.300 118.107 C 185.741 117.113,182.459 115.167,182.340 115.167 C 182.260 115.167,182.169 115.110,182.139 115.041 C 182.088 114.926,178.092 112.475,177.198 112.011 C 176.845 111.828,176.754 111.877,176.129 112.586 C 174.590 114.335,171.221 115.036,169.127 114.042 C 168.692 113.835,168.280 113.666,168.210 113.665 C 167.435 113.652,165.951 111.350,165.580 109.583 C 164.554 104.707,168.959 101.064,173.913 102.690 C 174.932 103.025,176.667 104.389,176.667 104.857 C 176.667 105.056,176.974 105.036,177.215 104.821 C 177.326 104.722,177.699 104.478,178.045 104.279 C 178.390 104.080,179.628 103.332,180.795 102.618 C 181.962 101.904,183.065 101.229,183.247 101.118 C 183.429 101.007,183.893 100.710,184.277 100.458 C 184.662 100.206,185.016 100.000,185.063 100.000 C 185.111 100.000,185.483 99.775,185.891 99.500 C 186.298 99.225,186.715 99.000,186.816 99.000 C 186.917 99.000,187.000 98.930,187.000 98.845 C 187.000 98.759,187.150 98.642,187.333 98.583 C 188.744 98.135,183.214 92.927,180.000 91.677 C 179.679 91.552,179.192 91.351,178.917 91.230 C 176.876 90.334,171.191 89.715,168.583 90.105 M204.167 90.108 C 201.443 90.519,198.629 91.344,196.784 92.271 C 194.509 93.415,191.044 96.149,191.442 96.487 C 191.520 96.553,192.333 97.106,193.250 97.715 C 194.167 98.324,195.923 99.506,197.152 100.341 C 199.364 101.844,200.167 102.101,200.167 101.305 C 200.167 101.229,200.242 101.167,200.334 101.167 C 200.426 101.167,200.890 100.979,201.364 100.751 C 205.651 98.683,210.011 100.148,210.444 103.803 L 210.544 104.644 206.730 104.710 C 199.340 104.837,195.427 106.047,192.312 109.169 C 189.500 111.986,188.660 117.355,190.443 121.123 C 193.363 127.297,204.145 128.849,209.661 123.890 L 210.500 123.136 210.500 124.485 L 210.500 125.833 216.833 125.833 L 223.167 125.833 223.167 114.095 C 223.167 101.937,223.108 100.649,222.466 98.750 C 220.771 93.737,217.314 91.167,210.917 90.164 C 209.967 90.015,205.054 89.974,204.167 90.108 M240.833 90.158 C 237.601 90.724,234.691 91.762,233.250 92.865 C 232.378 93.532,231.343 94.487,230.957 94.981 C 230.698 95.312,230.394 95.696,230.282 95.833 C 228.516 98.003,228.128 103.400,229.528 106.314 C 230.582 108.506,233.102 110.535,235.750 111.325 C 236.117 111.434,236.567 111.594,236.750 111.680 C 237.130 111.859,239.341 112.379,241.667 112.838 C 245.386 113.571,246.576 114.209,246.576 115.470 C 246.576 117.419,243.559 118.504,240.965 117.488 C 240.077 117.141,239.000 116.271,239.000 115.902 C 239.000 114.888,238.742 114.910,234.083 116.333 C 233.442 116.529,232.842 116.710,232.750 116.736 C 232.658 116.762,232.471 116.828,232.333 116.884 C 232.196 116.939,231.633 117.105,231.083 117.253 C 230.533 117.400,229.933 117.586,229.750 117.667 C 229.567 117.747,228.985 117.932,228.458 118.078 C 227.538 118.332,227.172 118.778,227.645 119.070 C 227.725 119.119,227.839 119.405,227.899 119.705 C 228.129 120.854,230.108 123.198,231.632 124.126 C 232.219 124.483,232.460 124.602,234.115 125.350 C 237.763 126.999,245.765 127.244,250.806 125.861 C 256.449 124.313,259.660 120.339,259.665 114.898 C 259.671 108.793,256.159 106.018,245.750 103.905 C 245.567 103.868,244.825 103.717,244.102 103.570 C 241.954 103.132,240.833 102.330,240.833 101.230 C 240.833 98.172,246.324 97.874,247.841 100.849 C 248.047 101.253,248.253 101.466,248.368 101.395 C 248.472 101.331,249.313 101.106,250.237 100.895 C 251.161 100.684,252.704 100.317,253.667 100.079 C 254.629 99.841,256.004 99.508,256.721 99.339 C 258.326 98.959,258.260 99.035,257.910 97.981 C 257.392 96.421,256.065 94.496,254.807 93.481 C 254.054 92.874,252.539 91.833,252.407 91.833 C 252.366 91.833,251.938 91.643,251.458 91.411 C 249.104 90.273,243.769 89.644,240.833 90.158 M324.833 90.102 C 323.381 90.374,321.319 90.906,320.750 91.155 C 320.384 91.316,319.821 91.549,319.500 91.673 C 319.179 91.796,318.879 91.944,318.833 92.000 C 318.787 92.056,318.500 92.203,318.194 92.327 C 317.888 92.451,317.551 92.634,317.444 92.735 C 317.337 92.835,316.950 93.115,316.583 93.356 C 315.549 94.036,313.907 95.596,313.038 96.724 C 311.864 98.248,311.629 98.624,310.942 100.083 C 310.597 100.817,310.250 101.536,310.172 101.682 C 308.781 104.280,308.765 113.390,310.148 115.245 C 310.218 115.339,310.412 115.792,310.577 116.250 C 310.743 116.708,310.981 117.202,311.106 117.346 C 311.231 117.491,311.333 117.664,311.333 117.731 C 311.333 119.292,316.454 123.743,319.880 125.158 C 326.284 127.805,335.556 127.063,339.830 123.562 C 341.559 122.145,342.035 121.669,343.313 120.073 C 343.604 119.710,343.857 119.135,343.766 119.044 C 343.663 118.941,343.441 118.807,342.231 118.121 C 341.783 117.867,341.154 117.503,340.833 117.313 C 339.374 116.448,337.328 115.219,336.396 114.647 L 335.375 114.021 334.896 114.528 C 331.535 118.080,325.080 117.685,322.190 113.750 C 322.073 113.591,321.500 112.222,321.500 112.103 C 321.500 112.071,326.881 111.990,333.458 111.923 C 340.035 111.855,345.454 111.764,345.500 111.720 C 345.711 111.517,345.671 106.490,345.447 105.083 C 344.598 99.753,342.483 96.209,338.330 93.157 C 335.211 90.865,328.667 89.384,324.833 90.102 M330.600 100.496 C 332.121 101.245,333.492 102.930,333.756 104.375 L 333.870 105.000 327.667 105.000 L 321.464 105.000 321.577 104.551 C 322.532 100.742,327.012 98.729,330.600 100.496 M49.667 101.978 C 43.902 103.887,45.208 112.325,51.211 111.957 C 57.674 111.561,57.790 102.218,51.336 101.902 C 50.647 101.868,49.896 101.903,49.667 101.978 M101.167 101.989 C 98.935 102.670,97.500 104.599,97.500 106.917 C 97.500 112.356,104.971 113.985,107.213 109.036 C 108.950 105.201,105.150 100.773,101.167 101.989 M210.500 112.936 L 210.500 114.872 209.792 115.524 C 206.891 118.195,202.333 117.510,202.333 114.403 C 202.333 112.204,204.552 111.086,209.042 111.021 L 210.500 111.000 210.500 112.936 " stroke="none" fill="#242464" fill-rule="evenodd"></path><path id="path1" d="M51.958 26.958 C 65.731 26.982,88.269 26.982,102.042 26.958 C 115.815 26.935,104.546 26.916,77.000 26.916 C 49.454 26.916,38.185 26.935,51.958 26.958 M176.292 26.954 C 176.590 26.991,177.077 26.991,177.375 26.954 C 177.673 26.917,177.429 26.887,176.833 26.887 C 176.237 26.887,175.994 26.917,176.292 26.954 M211.629 26.956 C 212.021 26.991,212.621 26.990,212.963 26.954 C 213.304 26.919,212.983 26.890,212.250 26.890 C 211.517 26.891,211.237 26.920,211.629 26.956 M256.292 26.954 C 256.590 26.991,257.077 26.991,257.375 26.954 C 257.673 26.917,257.429 26.887,256.833 26.887 C 256.237 26.887,255.994 26.917,256.292 26.954 M292.542 26.955 C 292.885 26.991,293.448 26.991,293.792 26.955 C 294.135 26.919,293.854 26.889,293.167 26.889 C 292.479 26.889,292.198 26.919,292.542 26.955 M265.909 83.667 C 265.909 87.104,265.931 88.510,265.958 86.792 C 265.985 85.073,265.985 82.260,265.958 80.542 C 265.931 78.823,265.909 80.229,265.909 83.667 M265.909 106.917 C 265.909 110.400,265.931 111.849,265.958 110.136 C 265.985 108.423,265.985 105.573,265.958 103.803 C 265.931 102.032,265.909 103.433,265.909 106.917 M152.705 107.333 C 152.705 107.654,152.740 107.785,152.782 107.625 C 152.823 107.465,152.823 107.202,152.782 107.042 C 152.740 106.881,152.705 107.013,152.705 107.333 " stroke="none" fill="#282464" fill-rule="evenodd"></path><path id="path2" d="M51.958 26.958 C 65.731 26.982,88.269 26.982,102.042 26.958 C 115.815 26.935,104.546 26.916,77.000 26.916 C 49.454 26.916,38.185 26.935,51.958 26.958 M176.292 26.954 C 176.590 26.991,177.077 26.991,177.375 26.954 C 177.673 26.917,177.429 26.887,176.833 26.887 C 176.237 26.887,175.994 26.917,176.292 26.954 M211.629 26.956 C 212.021 26.991,212.621 26.990,212.963 26.954 C 213.304 26.919,212.983 26.890,212.250 26.890 C 211.517 26.891,211.237 26.920,211.629 26.956 M256.292 26.954 C 256.590 26.991,257.077 26.991,257.375 26.954 C 257.673 26.917,257.429 26.887,256.833 26.887 C 256.237 26.887,255.994 26.917,256.292 26.954 M292.542 26.955 C 292.885 26.991,293.448 26.991,293.792 26.955 C 294.135 26.919,293.854 26.889,293.167 26.889 C 292.479 26.889,292.198 26.919,292.542 26.955 M265.909 83.667 C 265.909 87.104,265.931 88.510,265.958 86.792 C 265.985 85.073,265.985 82.260,265.958 80.542 C 265.931 78.823,265.909 80.229,265.909 83.667 M265.909 106.917 C 265.909 110.400,265.931 111.849,265.958 110.136 C 265.985 108.423,265.985 105.573,265.958 103.803 C 265.931 102.032,265.909 103.433,265.909 106.917 M152.705 107.333 C 152.705 107.654,152.740 107.785,152.782 107.625 C 152.823 107.465,152.823 107.202,152.782 107.042 C 152.740 106.881,152.705 107.013,152.705 107.333 " stroke="none" fill="#282464" fill-rule="evenodd"></path></g></svg>